<?xml version="1.0" standalone="no"?>
<!DOCTYPE svg PUBLIC "-//W3C//DTD SVG 20010904//EN"
 "http://www.w3.org/TR/2001/REC-SVG-20010904/DTD/svg10.dtd">
<svg version="1.0" xmlns="http://www.w3.org/2000/svg"
 width="252.000000pt" height="252.000000pt" viewBox="0 0 252.000000 252.000000"
 preserveAspectRatio="xMidYMid meet">
<metadata>
Created by potrace 1.11, written by Peter Selinger 2001-2013
</metadata>
<g transform="translate(0.000000,252.000000) scale(0.100000,-0.100000)"
fill="#000000" stroke="none">
<path d="M1158 2243 l-154 -268 88 -3 88 -3 0 -475 c0 -376 3 -475 13 -472 9
4 13 113 15 491 l2 487 -75 0 c-41 0 -75 3 -75 8 1 14 248 437 255 435 4 -1
62 -100 130 -220 l122 -218 -73 -3 -74 -3 0 -184 c0 -158 2 -185 15 -185 13 0
15 26 15 170 l0 170 80 0 c45 0 80 4 80 10 0 9 -276 506 -290 523 -4 5 -77
-112 -162 -260z"/>
<path d="M759 1787 l-86 -152 48 -3 49 -3 0 -245 c0 -156 4 -244 10 -244 6 0
10 91 10 254 l0 255 -40 3 -40 3 68 117 c37 65 70 118 74 118 3 0 36 -53 72
-117 l65 -118 -39 -3 -40 -3 0 -350 c0 -226 4 -349 10 -349 6 0 10 120 10 339
l0 340 49 3 48 3 -85 153 c-48 83 -89 152 -92 152 -3 0 -44 -69 -91 -153z"/>
<path d="M1673 1560 c-46 -82 -83 -151 -83 -154 0 -3 20 -6 45 -6 l45 0 0 -95
c0 -57 4 -95 10 -95 6 0 10 41 10 104 l0 105 -39 3 -38 3 66 117 c36 65 68
118 71 118 3 0 35 -53 72 -118 l68 -117 -40 -3 -40 -3 0 -255 c0 -163 4 -254
10 -254 6 0 10 88 10 244 l0 245 49 3 48 3 -86 152 c-47 84 -88 152 -91 153
-3 0 -42 -67 -87 -150z"/>
<path d="M1420 1500 c0 -29 4 -40 15 -40 11 0 15 11 15 40 0 29 -4 40 -15 40
-11 0 -15 -11 -15 -40z"/>
<path d="M510 1410 c0 -22 5 -40 10 -40 6 0 10 18 10 40 0 22 -4 40 -10 40 -5
0 -10 -18 -10 -40z"/>
<path d="M1420 1060 c0 -260 2 -300 15 -300 13 0 15 40 15 300 0 260 -2 300
-15 300 -13 0 -15 -40 -15 -300z"/>
<path d="M2071 1224 c-33 -42 -21 -93 26 -113 53 -22 103 13 103 73 0 63 -89
90 -129 40z"/>
<path d="M1680 800 c0 -220 4 -340 10 -340 6 0 10 62 10 165 l0 165 205 0 205
0 0 -90 0 -90 74 0 c72 0 75 -1 88 -27 20 -42 74 -65 121 -52 46 12 72 49 72
102 0 107 -160 133 -196 32 -13 -35 -13 -35 -76 -35 l-63 0 0 95 0 95 -215 0
-215 0 0 160 c0 100 -4 160 -10 160 -6 0 -10 -120 -10 -340z m734 -111 c55
-43 21 -139 -51 -139 -47 0 -95 50 -60 63 8 3 6 9 -7 20 -19 14 -19 15 11 46
37 36 69 40 107 10z"/>
<path d="M490 1090 c0 -27 -3 -30 -30 -30 -20 0 -30 -5 -30 -15 0 -10 10 -15
30 -15 27 0 30 -3 30 -30 0 -20 5 -30 15 -30 10 0 15 10 15 30 0 27 3 30 30
30 20 0 30 5 30 15 0 10 -10 15 -30 15 -27 0 -30 3 -30 30 0 20 -5 30 -15 30
-10 0 -15 -10 -15 -30z"/>
<path d="M1180 840 l0 -120 -185 0 c-181 0 -185 0 -185 21 0 11 -13 34 -29 50
-64 63 -171 20 -171 -69 0 -44 28 -88 67 -103 22 -8 24 -13 21 -71 l-3 -63
-167 -3 -168 -2 0 -63 0 -62 -40 -17 c-71 -30 -88 -118 -32 -173 36 -36 109
-36 145 1 53 53 41 136 -24 169 -28 15 -30 19 -27 68 l3 52 168 3 167 2 0 75
0 74 35 16 c19 10 40 30 47 46 l13 29 192 0 193 0 0 130 c0 80 -4 130 -10 130
-6 0 -10 -47 -10 -120z m-415 -65 c50 -49 17 -135 -51 -135 -64 0 -107 74 -71
121 34 44 87 50 122 14z m-372 -466 c24 -11 47 -47 47 -74 0 -8 -11 -26 -23
-41 -43 -50 -116 -29 -132 38 -6 22 -1 33 23 58 33 33 48 36 85 19z"/>
<path d="M910 850 c0 -29 4 -40 15 -40 11 0 15 11 15 40 0 29 -4 40 -15 40
-11 0 -15 -11 -15 -40z"/>
<path d="M1420 610 l0 -90 -240 0 -240 0 0 -90 c0 -75 -3 -90 -16 -90 -8 0
-29 -13 -45 -29 -65 -65 -15 -171 80 -171 37 0 88 41 96 79 9 43 -18 100 -55
114 -30 11 -30 12 -30 89 l0 78 223 -2 222 -3 3 -72 c3 -67 1 -72 -20 -78 -60
-19 -92 -87 -68 -146 17 -41 47 -59 98 -59 35 0 49 6 73 29 48 48 36 138 -23
163 l-28 13 0 177 c0 152 -2 178 -15 178 -12 0 -15 -17 -15 -90z m-413 -312
c32 -30 31 -81 -2 -113 -33 -34 -70 -32 -107 5 -25 26 -29 36 -24 63 12 64 86
89 133 45z m465 2 c14 -11 28 -28 30 -38 8 -30 -18 -81 -47 -92 -37 -14 -40
-13 -74 16 -39 33 -41 74 -6 109 29 30 64 32 97 5z"/>
</g>
</svg>
